Patient4_TMGait_0pt6_02_left_06_GRF.mot
version=1
nRows=59
nColumns=19
inDegrees=no
endheader
time	F1x	F1y	F1z	M1x	M1y	M1z	F2x	F2y	F2z	M2x	M2y	M2z	EC1x	EC1y	EC1z	EC2x	EC2y	EC2z
7.23	12.583	9.4791	1.3439	-2.6796	2.8257	-7.1016	-40.4576	766.889	-41.7244	296.4757	52.3263	741.0052	-0.0592	0.0182	-0.0073	-0.0462	0.0165	0.9585
7.2422	8.2546	7.2445	0.95608	-2.1664	1.8778	-3.8838	-37.8085	775.6455	-42.9099	299.615	53.5128	745.6871	-0.0592	0.0182	-0.0073	-0.0462	0.0165	0.9585
7.2544	4.6621	5.368	0.60318	-1.732	1.0734	-1.1666	-35.281	784.4935	-44.0953	302.7171	54.4784	749.965	-0.0592	0.0182	-0.0073	-0.0462	0.0165	0.9585
7.2666	1.9567	3.9766	0.32412	-1.4087	0.45253	0.94174	-32.8614	792.5224	-45.1785	305.4386	55.0705	753.1114	-0.0592	0.0182	-0.0073	-0.0462	0.0165	0.9585
7.2789	0.11421	3.0587	0.12146	-1.1958	0.021514	2.4434	-30.4559	798.8383	-46.1093	307.4478	55.2222	754.3928	-0.0592	0.0182	-0.0073	-0.0462	0.0165	0.9585
7.2911	-1.0239	2.548	-0.0052756	-1.0786	-0.25618	3.4326	-27.9226	802.6152	-46.8399	308.4465	54.8864	753.1214	-0.0592	0.0182	-0.0073	-0.0462	0.0165	0.9585
7.3033	-1.6408	2.3293	-0.07277	-1.0291	-0.41947	4.0113	-25.1579	803.2012	-47.3389	308.2021	54.0588	748.7823	-0.0592	0.0182	-0.0073	-0.0462	0.0165	0.9585
7.3155	-1.9066	2.2556	-0.09019	-1.0074	-0.51513	4.2415	-22.0925	800.2073	-47.5693	306.5768	52.7458	741.1023	-0.0592	0.0182	-0.0073	-0.0462	0.0165	0.9585
7.3277	-1.9866	2.203	-0.074873	-0.97398	-0.58303	4.1923	-18.7122	793.5977	-47.5193	303.5625	50.9876	730.153	-0.0592	0.0182	-0.0073	-0.0462	0.0165	0.9585
7.3399	-1.9723	2.0108	-0.02951	-0.87511	-0.65578	3.8323	-15.0482	783.7349	-47.1861	299.3006	48.8349	716.3681	-0.0592	0.0182	-0.0073	-0.0462	0.0165	0.9585
7.3521	-1.9467	1.5588	0.034103	-0.66563	-0.74973	3.1471	-11.1536	771.3343	-46.6178	294.0605	46.3787	700.4791	-0.0592	0.0182	-0.0073	-0.0462	0.0165	0.9585
7.3644	-1.9185	0.71362	0.11706	-0.30155	-0.86665	2.0324	-7.1324	757.3383	-45.8865	288.1971	43.7306	683.3999	-0.0592	0.0182	-0.0073	-0.0462	0.0165	0.9585
7.3766	-1.9059	-0.59828	0.2051	0.24454	-0.99055	0.4559	-3.0945	742.8211	-45.1093	282.114	41.042	666.1327	-0.0592	0.0182	-0.0073	-0.0462	0.0165	0.9585
7.3888	-1.8358	-2.4108	0.29411	0.98196	-1.0855	-1.629	0.82183	728.9002	-44.4065	276.2318	38.4757	649.6916	-0.0592	0.0182	-0.0073	-0.0462	0.0165	0.9585
7.401	-1.6498	-4.6175	0.35701	1.8694	-1.0947	-4.1006	4.4882	716.5929	-43.9153	270.9397	36.1931	634.9491	-0.0592	0.0182	-0.0073	-0.0462	0.0165	0.9585
7.4132	-1.2035	-6.9479	0.36402	2.7958	-0.92938	-6.6974	7.8037	706.7251	-43.7452	266.5585	34.3118	622.5958	-0.0592	0.0182	-0.0073	-0.0462	0.0165	0.9585
7.4254	-0.36826	-8.8461	0.26134	3.5414	-0.48156	-8.8212	10.7304	699.7946	-43.989	263.2877	32.9185	613.0131	-0.0592	0.0182	-0.0073	-0.0462	0.0165	0.9585
7.4376	1.0277	-9.4309	-0.016718	3.7537	0.38093	-9.5527	13.2767	695.9118	-44.6919	261.1816	32.0493	606.2461	-0.0592	0.0182	-0.0073	-0.0462	0.0165	0.9585
7.4499	3.1105	-7.3969	-0.55032	2.9178	1.7878	-7.4845	15.538	694.7873	-45.8505	260.1412	31.6766	601.9892	-0.0592	0.0182	-0.0073	-0.0462	0.0165	0.9585
7.4621	5.9517	-1.03	-1.4155	0.35492	3.844	-0.78685	17.6757	695.7044	-47.4068	259.9097	31.7051	599.5598	-0.0592	0.0182	-0.0073	-0.0462	0.0165	0.9585
7.4743	9.4631	11.7309	-2.6711	-4.7461	6.5729	12.7516	19.8739	697.6085	-49.2338	260.1025	31.9698	598.0159	-0.0592	0.0182	-0.0073	-0.0462	0.0165	0.9585
7.4865	13.3007	33.0372	-4.3202	-13.2282	9.836	35.4413	22.2985	699.1856	-51.1326	260.2406	32.2502	596.2069	-0.0592	0.0182	-0.0073	-0.0462	0.0165	0.9585
7.4987	16.7442	64.6386	-6.2703	-25.7717	13.2404	69.1778	25.004	698.9855	-52.8217	259.7938	32.2976	592.9208	-0.0592	0.0182	-0.0073	-0.0462	0.0165	0.9585
7.5109	18.5311	107.0957	-8.2586	-42.5793	16.0064	114.604	27.9649	695.4646	-53.9682	258.1988	31.8583	586.91	-0.0592	0.0182	-0.0073	-0.0462	0.0165	0.9585
7.5231	16.9412	158.7706	-9.7759	-62.9835	16.9191	170.0108	31.0399	687.1084	-54.2345	254.8992	30.7218	577.0055	-0.0592	0.0182	-0.0073	-0.0462	0.0165	0.9585
7.5354	10.8394	215.4887	-10.1196	-85.3064	14.8071	230.9881	34.0427	672.5501	-53.3425	249.3918	28.7493	562.1695	-0.0592	0.0182	-0.0073	-0.0462	0.0165	0.9585
7.5476	1.5548	271.1236	-8.4361	-107.0804	9.2807	290.8676	36.7153	650.8004	-51.1593	241.3052	25.9398	541.687	-0.0592	0.0182	-0.0073	-0.0462	0.0165	0.9585
7.5598	-8.2405	319.3185	-3.9389	-125.781	0.609	342.5252	38.837	621.3774	-47.7598	230.4525	22.4463	515.2251	-0.0592	0.0182	-0.0073	-0.0462	0.0165	0.9585
7.572	-16.8329	357.3656	2.6878	-140.3626	-9.769	382.7337	40.2078	584.4828	-43.4251	216.8829	18.5656	482.9953	-0.0592	0.0182	-0.0073	-0.0462	0.0165	0.9585
7.5842	-23.4755	386.7478	10.3543	-151.4599	-20.3891	412.9319	40.7197	540.9314	-38.568	200.8637	14.6502	445.6739	-0.0592	0.0182	-0.0073	-0.0462	0.0165	0.9585
7.5964	-28.1202	411.1043	17.9887	-160.5662	-30.091	437.0378	40.3526	491.9181	-33.6276	182.8033	11.0303	404.2345	-0.0592	0.0182	-0.0073	-0.0462	0.0165	0.9585
7.6086	-31.0126	434.2024	24.6999	-169.2205	-38.0457	459.0935	39.0704	438.8095	-28.8569	163.191	7.8887	359.7782	-0.0592	0.0182	-0.0073	-0.0462	0.0165	0.9585
7.6209	-32.5218	458.8821	30.0638	-178.5709	-43.9588	482.1365	36.8042	383.0738	-24.3522	142.5636	5.3107	313.4985	-0.0592	0.0182	-0.0073	-0.0462	0.0165	0.9585
7.6331	-32.902	486.8735	33.9496	-189.2952	-47.8247	507.9603	33.4904	326.2653	-20.0993	121.4986	3.2997	266.6491	-0.0592	0.0182	-0.0073	-0.0462	0.0165	0.9585
7.6453	-32.4517	518.9894	36.717	-201.6673	-50.1498	537.497	29.1313	270.0891	-16.1174	100.6339	1.8701	220.5878	-0.0592	0.0182	-0.0073	-0.0462	0.0165	0.9585
7.6575	-31.4037	555.298	38.7781	-215.6482	-51.4809	570.8595	23.9249	216.4231	-12.4728	80.6708	1.0027	176.7862	-0.0592	0.0182	-0.0073	-0.0462	0.0165	0.9585
7.6697	-30.0002	595.0761	40.7732	-230.8745	-52.574	607.3953	18.2641	167.1065	-9.2854	62.2996	0.64517	136.6659	-0.0592	0.0182	-0.0073	-0.0462	0.0165	0.9585
7.6819	-28.4792	636.8201	43.0969	-246.703	-53.9345	645.6274	12.7049	123.6852	-6.6254	46.1045	0.64237	101.4029	-0.0592	0.0182	-0.0073	-0.0462	0.0165	0.9585
7.6941	-27.1189	678.6258	46.1144	-262.3471	-56.0301	683.7021	7.7939	87.1079	-4.5118	32.4498	0.80909	71.7046	-0.0592	0.0182	-0.0073	-0.0462	0.0165	0.9585
7.7064	-26.0631	718.5388	49.7205	-277.0479	-58.811	719.697	3.8812	57.6494	-2.8787	21.4527	0.97109	47.7518	-0.0592	0.0182	-0.0073	-0.0462	0.0165	0.9585
7.7186	-25.2469	754.8097	53.6119	-290.1508	-61.9578	751.9267	1.0611	35.062	-1.6672	13.0288	1.0578	29.348	-0.0592	0.0182	-0.0073	-0.0462	0.0165	0.9585
7.7308	-24.5114	785.8312	57.2286	-301.0828	-64.8613	778.8314	-0.7367	18.7359	-0.81226	6.9523	1.0504	16.0177	-0.0592	0.0182	-0.0073	-0.0462	0.0165	0.9585
7.743	-23.6925	810.0844	60.2105	-309.3114	-67.1083	798.9701	-1.6879	7.8217	-0.26277	2.9042	0.97389	7.0895	-0.0592	0.0182	-0.0073	-0.0462	0.0165	0.9585
7.7552	-22.6465	826.3113	62.3742	-314.4032	-68.463	811.1876	-2.0166	1.309	0.038768	0.50243	0.86064	1.7361	-0.0592	0.0182	-0.0073	-0.0462	0.0165	0.9585
7.7674	-21.2756	833.7456	63.788	-316.1059	-68.9535	814.8161	-1.9715	-1.9201	0.16464	-0.67445	0.74281	-0.95138	-0.0592	0.0182	-0.0073	-0.0462	0.0165	0.9585
7.7796	-19.5579	832.3586	64.5523	-314.4515	-68.6664	809.9098	-1.7317	-2.9443	0.17506	-1.0301	0.6406	-1.8559	-0.0592	0.0182	-0.0073	-0.0462	0.0165	0.9585
7.7919	-17.4626	823.0699	64.7298	-309.8328	-67.6664	797.4192	-1.4214	-2.638	0.1249	-0.89546	0.55623	-1.6645	-0.0592	0.0182	-0.0073	-0.0462	0.0165	0.9585
7.8041	-15.0364	807.6204	64.3375	-302.9557	-65.9965	779.0791	-1.1084	-1.6647	0.051665	-0.51935	0.48697	-0.90599	-0.0592	0.0182	-0.0073	-0.0462	0.0165	0.9585
7.8163	-12.3169	788.278	63.3984	-294.7147	-63.7053	757.084	-0.8422	-0.46681	-0.018852	-0.067085	0.43189	0.066676	-0.0592	0.0182	-0.0073	-0.0462	0.0165	0.9585
7.8285	-9.392	767.4677	62.037	-286.0411	-60.9463	733.7839	-0.63202	0.6965	-0.07843	0.36475	0.39166	1.0425	-0.0592	0.0182	-0.0073	-0.0462	0.0165	0.9585
7.8407	-6.3502	747.455	60.4197	-277.791	-57.9151	711.3208	-0.48443	1.6868	-0.1162	0.72527	0.35718	1.8998	-0.0592	0.0182	-0.0073	-0.0462	0.0165	0.9585
7.8529	-3.3494	730.1831	58.767	-270.6782	-54.876	691.5264	-0.39496	2.4669	-0.1326	1.0011	0.32536	2.6002	-0.0592	0.0182	-0.0073	-0.0462	0.0165	0.9585
7.8651	-0.51776	717.0774	57.2315	-265.2173	-52.0256	675.7122	-0.34275	3.0441	-0.13038	1.1981	0.29218	3.1361	-0.0592	0.0182	-0.0073	-0.0462	0.0165	0.9585
7.8774	2.0148	708.972	55.9782	-261.6983	-49.5622	664.6324	-0.32983	3.4445	-0.11694	1.3306	0.26236	3.5276	-0.0592	0.0182	-0.0073	-0.0462	0.0165	0.9585
7.8896	4.2038	706.0674	55.0961	-260.1765	-47.5804	658.4114	-0.32713	3.7145	-0.099114	1.4189	0.23561	3.8005	-0.0592	0.0182	-0.0073	-0.0462	0.0165	0.9585
7.9018	6.0555	707.9549	54.6578	-260.4816	-46.1368	656.6151	-0.34508	3.9008	-0.0807	1.4807	0.217	4.0025	-0.0592	0.0182	-0.0073	-0.0462	0.0165	0.9585
7.914	7.632	713.7258	54.6409	-262.2632	-45.1849	658.3339	-0.36725	4.0201	-0.063203	1.5242	0.20457	4.1394	-0.0592	0.0182	-0.0073	-0.0462	0.0165	0.9585
7.9262	9.003	722.1007	55.009	-265.0413	-44.6568	662.3505	-0.408	4.0868	-0.05546	1.5526	0.21092	4.2327	-0.0592	0.0182	-0.0073	-0.0462	0.0165	0.9585
7.9384	10.2842	731.6568	55.6703	-268.2917	-44.4223	667.3374	-0.46853	4.0718	-0.05704	1.5546	0.23822	4.2388	-0.0592	0.0182	-0.0073	-0.0462	0.0165	0.9585
